<mxfile host="app.diagrams.net" modified="2022-10-28T10:55:04.597Z" agent="5.0 (Macintosh; Intel Mac OS X 10_15_7) AppleWebKit/537.36 (KHTML, like Gecko) Chrome/106.0.0.0 Safari/537.36" etag="O5w4FQ866_2Hd1bVjKTp" version="20.5.1" type="github">
  <diagram name="Page-1" id="edf60f1a-56cd-e834-aa8a-f176f3a09ee4">
    <mxGraphModel dx="1018" dy="585" grid="1" gridSize="10" guides="1" tooltips="1" connect="1" arrows="1" fold="1" page="1" pageScale="1" pageWidth="1100" pageHeight="850" background="none" math="0" shadow="0">
      <root>
        <mxCell id="0" />
        <mxCell id="1" parent="0" />
        <mxCell id="60e70716793133e9-31" style="edgeStyle=orthogonalEdgeStyle;rounded=0;html=1;labelBackgroundColor=none;startSize=5;endArrow=classicThin;endFill=1;endSize=5;jettySize=auto;orthogonalLoop=1;strokeWidth=1;fontFamily=Verdana;fontSize=8;exitX=0.5;exitY=1;exitDx=0;exitDy=0;startArrow=none;" parent="1" source="OoWEpa3Trh9tH26HNslA-6" target="60e70716793133e9-5" edge="1">
          <mxGeometry relative="1" as="geometry">
            <mxPoint x="460" y="180" as="sourcePoint" />
          </mxGeometry>
        </mxCell>
        <mxCell id="60e70716793133e9-4" value="南讯推送" style="rounded=0;whiteSpace=wrap;html=1;shadow=1;labelBackgroundColor=none;strokeWidth=1;fontFamily=Verdana;fontSize=8;align=center;" parent="1" vertex="1">
          <mxGeometry x="505" y="90" width="90" height="30" as="geometry" />
        </mxCell>
        <mxCell id="60e70716793133e9-5" value="是否推送" style="rhombus;whiteSpace=wrap;html=1;rounded=0;shadow=1;labelBackgroundColor=none;strokeWidth=1;fontFamily=Verdana;fontSize=8;align=center;" parent="1" vertex="1">
          <mxGeometry x="500" y="240" width="100" height="60" as="geometry" />
        </mxCell>
        <mxCell id="60e70716793133e9-38" style="edgeStyle=orthogonalEdgeStyle;rounded=0;html=1;labelBackgroundColor=none;startSize=5;endArrow=classicThin;endFill=1;endSize=5;jettySize=auto;orthogonalLoop=1;strokeWidth=1;fontFamily=Verdana;fontSize=8" parent="1" edge="1">
          <mxGeometry relative="1" as="geometry">
            <mxPoint x="550" y="470" as="sourcePoint" />
            <mxPoint x="550" y="520" as="targetPoint" />
          </mxGeometry>
        </mxCell>
        <mxCell id="60e70716793133e9-41" style="edgeStyle=orthogonalEdgeStyle;rounded=0;html=1;labelBackgroundColor=none;startSize=5;endArrow=classicThin;endFill=1;endSize=5;jettySize=auto;orthogonalLoop=1;strokeWidth=1;fontFamily=Verdana;fontSize=8" parent="1" target="60e70716793133e9-13" edge="1">
          <mxGeometry relative="1" as="geometry">
            <mxPoint x="550" y="560" as="sourcePoint" />
            <Array as="points">
              <mxPoint x="550" y="550" />
            </Array>
          </mxGeometry>
        </mxCell>
        <mxCell id="60e70716793133e9-12" value="立即推送" style="whiteSpace=wrap;html=1;rounded=0;shadow=1;labelBackgroundColor=none;strokeWidth=1;fontFamily=Verdana;fontSize=8;align=center;spacing=6;" parent="1" vertex="1">
          <mxGeometry x="370" y="535" width="95" height="30" as="geometry" />
        </mxCell>
        <mxCell id="60e70716793133e9-13" value="单周周日推送" style="whiteSpace=wrap;html=1;rounded=0;shadow=1;labelBackgroundColor=none;strokeWidth=1;fontFamily=Verdana;fontSize=8;align=center;" parent="1" vertex="1">
          <mxGeometry x="505" y="620" width="90" height="30" as="geometry" />
        </mxCell>
        <mxCell id="60e70716793133e9-51" value="Yes" style="edgeStyle=orthogonalEdgeStyle;rounded=0;html=1;labelBackgroundColor=none;startSize=5;endArrow=classicThin;endFill=1;endSize=5;jettySize=auto;orthogonalLoop=1;strokeWidth=1;fontFamily=Verdana;fontSize=8" parent="1" edge="1">
          <mxGeometry x="-0.6924" y="-20" relative="1" as="geometry">
            <Array as="points">
              <mxPoint x="260" y="1069.9999999999998" />
              <mxPoint x="260" y="870" />
            </Array>
            <mxPoint as="offset" />
            <mxPoint x="290" y="870" as="targetPoint" />
          </mxGeometry>
        </mxCell>
        <mxCell id="OoWEpa3Trh9tH26HNslA-2" value="开始" style="rounded=1;whiteSpace=wrap;html=1;shadow=1;labelBackgroundColor=none;strokeWidth=1;fontFamily=Verdana;fontSize=8;align=center;" parent="1" vertex="1">
          <mxGeometry x="500" y="20" width="100" height="40" as="geometry" />
        </mxCell>
        <mxCell id="OoWEpa3Trh9tH26HNslA-3" style="edgeStyle=orthogonalEdgeStyle;rounded=0;html=1;labelBackgroundColor=none;startSize=5;endArrow=classicThin;endFill=1;endSize=5;jettySize=auto;orthogonalLoop=1;strokeWidth=1;fontFamily=Verdana;fontSize=8;exitX=0.5;exitY=1;exitDx=0;exitDy=0;entryX=0.5;entryY=0;entryDx=0;entryDy=0;" parent="1" target="60e70716793133e9-4" edge="1">
          <mxGeometry relative="1" as="geometry">
            <mxPoint x="549.5" y="60" as="sourcePoint" />
            <mxPoint x="549.5" y="90" as="targetPoint" />
          </mxGeometry>
        </mxCell>
        <mxCell id="OoWEpa3Trh9tH26HNslA-5" value="标签" style="rounded=0;whiteSpace=wrap;html=1;shadow=1;labelBackgroundColor=none;strokeWidth=1;fontFamily=Verdana;fontSize=8;align=center;" parent="1" vertex="1">
          <mxGeometry x="380" y="170" width="90" height="30" as="geometry" />
        </mxCell>
        <mxCell id="OoWEpa3Trh9tH26HNslA-7" value="营销人群" style="rounded=0;whiteSpace=wrap;html=1;shadow=1;labelBackgroundColor=none;strokeWidth=1;fontFamily=Verdana;fontSize=8;align=center;" parent="1" vertex="1">
          <mxGeometry x="630" y="170" width="90" height="30" as="geometry" />
        </mxCell>
        <mxCell id="OoWEpa3Trh9tH26HNslA-9" style="edgeStyle=orthogonalEdgeStyle;rounded=0;html=1;labelBackgroundColor=none;startSize=5;endArrow=classicThin;endFill=1;endSize=5;jettySize=auto;orthogonalLoop=1;strokeWidth=1;fontFamily=Verdana;fontSize=8;exitX=0.5;exitY=1;exitDx=0;exitDy=0;startArrow=none;entryX=0.5;entryY=0;entryDx=0;entryDy=0;" parent="1" target="60e70716793133e9-5" edge="1">
          <mxGeometry relative="1" as="geometry">
            <mxPoint x="424.5" y="200" as="sourcePoint" />
            <mxPoint x="424.5" y="220" as="targetPoint" />
            <Array as="points">
              <mxPoint x="425" y="220" />
              <mxPoint x="550" y="220" />
            </Array>
          </mxGeometry>
        </mxCell>
        <mxCell id="OoWEpa3Trh9tH26HNslA-11" style="edgeStyle=orthogonalEdgeStyle;rounded=0;html=1;labelBackgroundColor=none;startSize=5;endArrow=classicThin;endFill=1;endSize=5;jettySize=auto;orthogonalLoop=1;strokeWidth=1;fontFamily=Verdana;fontSize=8;exitX=0.5;exitY=1;exitDx=0;exitDy=0;startArrow=none;" parent="1" edge="1">
          <mxGeometry relative="1" as="geometry">
            <mxPoint x="677.25" y="200" as="sourcePoint" />
            <mxPoint x="550" y="240" as="targetPoint" />
            <Array as="points">
              <mxPoint x="677" y="220" />
              <mxPoint x="550" y="220" />
            </Array>
          </mxGeometry>
        </mxCell>
        <mxCell id="OoWEpa3Trh9tH26HNslA-12" value="" style="edgeStyle=orthogonalEdgeStyle;rounded=0;html=1;labelBackgroundColor=none;startSize=5;endArrow=none;endFill=1;endSize=5;jettySize=auto;orthogonalLoop=1;strokeWidth=1;fontFamily=Verdana;fontSize=8;exitX=0.5;exitY=1;exitDx=0;exitDy=0;startArrow=none;" parent="1" source="OoWEpa3Trh9tH26HNslA-6" edge="1">
          <mxGeometry relative="1" as="geometry">
            <mxPoint x="560" y="160" as="sourcePoint" />
            <mxPoint x="560" y="180" as="targetPoint" />
          </mxGeometry>
        </mxCell>
        <mxCell id="OoWEpa3Trh9tH26HNslA-6" value="CDP人群" style="rounded=0;whiteSpace=wrap;html=1;shadow=1;labelBackgroundColor=none;strokeWidth=1;fontFamily=Verdana;fontSize=8;align=center;" parent="1" vertex="1">
          <mxGeometry x="505" y="170" width="90" height="30" as="geometry" />
        </mxCell>
        <mxCell id="OoWEpa3Trh9tH26HNslA-14" value="" style="edgeStyle=orthogonalEdgeStyle;rounded=0;html=1;labelBackgroundColor=none;startSize=5;endArrow=classicThin;endFill=1;endSize=5;jettySize=auto;orthogonalLoop=1;strokeWidth=1;fontFamily=Verdana;fontSize=8;exitX=0.5;exitY=1;exitDx=0;exitDy=0;" parent="1" source="60e70716793133e9-4" edge="1">
          <mxGeometry x="-0.6667" y="10" relative="1" as="geometry">
            <mxPoint as="offset" />
            <mxPoint x="620" y="169" as="sourcePoint" />
            <mxPoint x="680" y="169" as="targetPoint" />
            <Array as="points">
              <mxPoint x="550" y="140" />
              <mxPoint x="680" y="140" />
            </Array>
          </mxGeometry>
        </mxCell>
        <mxCell id="OoWEpa3Trh9tH26HNslA-15" value="" style="edgeStyle=orthogonalEdgeStyle;rounded=0;html=1;labelBackgroundColor=none;startSize=5;endArrow=classicThin;endFill=1;endSize=5;jettySize=auto;orthogonalLoop=1;strokeWidth=1;fontFamily=Verdana;fontSize=8;" parent="1" edge="1">
          <mxGeometry x="-0.6667" y="10" relative="1" as="geometry">
            <mxPoint as="offset" />
            <mxPoint x="550" y="120" as="sourcePoint" />
            <mxPoint x="550" y="170" as="targetPoint" />
            <Array as="points">
              <mxPoint x="550" y="140" />
              <mxPoint x="550" y="140" />
            </Array>
          </mxGeometry>
        </mxCell>
        <mxCell id="OoWEpa3Trh9tH26HNslA-16" value="" style="edgeStyle=orthogonalEdgeStyle;rounded=0;html=1;labelBackgroundColor=none;startSize=5;endArrow=classicThin;endFill=1;endSize=5;jettySize=auto;orthogonalLoop=1;strokeWidth=1;fontFamily=Verdana;fontSize=8;" parent="1" edge="1">
          <mxGeometry x="-0.6667" y="10" relative="1" as="geometry">
            <mxPoint as="offset" />
            <mxPoint x="550" y="120" as="sourcePoint" />
            <mxPoint x="424.5" y="170" as="targetPoint" />
            <Array as="points">
              <mxPoint x="550" y="140" />
              <mxPoint x="425" y="140" />
            </Array>
          </mxGeometry>
        </mxCell>
        <mxCell id="OoWEpa3Trh9tH26HNslA-17" value="是否存在&lt;br&gt;推送配置" style="rhombus;whiteSpace=wrap;html=1;rounded=0;shadow=1;labelBackgroundColor=none;strokeWidth=1;fontFamily=Verdana;fontSize=8;align=center;" parent="1" vertex="1">
          <mxGeometry x="500" y="430" width="100" height="60" as="geometry" />
        </mxCell>
        <mxCell id="OoWEpa3Trh9tH26HNslA-18" value="是" style="text;html=1;align=center;verticalAlign=middle;resizable=0;points=[];autosize=1;strokeColor=none;fillColor=none;" parent="1" vertex="1">
          <mxGeometry x="540" y="300" width="40" height="30" as="geometry" />
        </mxCell>
        <mxCell id="OoWEpa3Trh9tH26HNslA-19" value="是否定时" style="rhombus;whiteSpace=wrap;html=1;rounded=0;shadow=1;labelBackgroundColor=none;strokeWidth=1;fontFamily=Verdana;fontSize=8;align=center;" parent="1" vertex="1">
          <mxGeometry x="500" y="520" width="100" height="60" as="geometry" />
        </mxCell>
        <mxCell id="OoWEpa3Trh9tH26HNslA-20" value="是" style="text;html=1;align=center;verticalAlign=middle;resizable=0;points=[];autosize=1;strokeColor=none;fillColor=none;" parent="1" vertex="1">
          <mxGeometry x="540" y="490" width="40" height="30" as="geometry" />
        </mxCell>
        <mxCell id="OoWEpa3Trh9tH26HNslA-26" value="" style="edgeStyle=orthogonalEdgeStyle;rounded=0;orthogonalLoop=1;jettySize=auto;html=1;" parent="1" source="OoWEpa3Trh9tH26HNslA-24" target="OoWEpa3Trh9tH26HNslA-17" edge="1">
          <mxGeometry relative="1" as="geometry" />
        </mxCell>
        <mxCell id="OoWEpa3Trh9tH26HNslA-24" value="是否单次推送" style="rhombus;whiteSpace=wrap;html=1;rounded=0;shadow=1;labelBackgroundColor=none;strokeWidth=1;fontFamily=Verdana;fontSize=8;align=center;" parent="1" vertex="1">
          <mxGeometry x="500" y="330" width="100" height="60" as="geometry" />
        </mxCell>
        <mxCell id="OoWEpa3Trh9tH26HNslA-25" style="edgeStyle=orthogonalEdgeStyle;rounded=0;html=1;labelBackgroundColor=none;startSize=5;endArrow=classicThin;endFill=1;endSize=5;jettySize=auto;orthogonalLoop=1;strokeWidth=1;fontFamily=Verdana;fontSize=8" parent="1" edge="1">
          <mxGeometry relative="1" as="geometry">
            <mxPoint x="550" y="390" as="sourcePoint" />
            <mxPoint x="549.5" y="430" as="targetPoint" />
            <Array as="points">
              <mxPoint x="550" y="410" />
            </Array>
          </mxGeometry>
        </mxCell>
        <mxCell id="OoWEpa3Trh9tH26HNslA-28" value="" style="endArrow=classic;html=1;rounded=0;edgeStyle=elbowEdgeStyle;elbow=horizontal;exitX=0.5;exitY=1;exitDx=0;exitDy=0;entryX=0.5;entryY=0;entryDx=0;entryDy=0;" parent="1" source="60e70716793133e9-5" target="OoWEpa3Trh9tH26HNslA-24" edge="1">
          <mxGeometry width="50" height="50" relative="1" as="geometry">
            <mxPoint x="750" y="470" as="sourcePoint" />
            <mxPoint x="800" y="330" as="targetPoint" />
            <Array as="points">
              <mxPoint x="550" y="330" />
            </Array>
          </mxGeometry>
        </mxCell>
        <mxCell id="OoWEpa3Trh9tH26HNslA-29" value="否" style="text;html=1;align=center;verticalAlign=middle;resizable=0;points=[];autosize=1;strokeColor=none;fillColor=none;" parent="1" vertex="1">
          <mxGeometry x="540" y="395" width="40" height="30" as="geometry" />
        </mxCell>
        <mxCell id="OoWEpa3Trh9tH26HNslA-30" value="" style="edgeStyle=orthogonalEdgeStyle;rounded=0;orthogonalLoop=1;jettySize=auto;html=1;exitX=0;exitY=0.5;exitDx=0;exitDy=0;entryX=0.5;entryY=0;entryDx=0;entryDy=0;" parent="1" target="60e70716793133e9-12" edge="1">
          <mxGeometry relative="1" as="geometry">
            <mxPoint x="500" y="359.5" as="sourcePoint" />
            <mxPoint x="440" y="359.5" as="targetPoint" />
            <Array as="points">
              <mxPoint x="418" y="360" />
              <mxPoint x="418" y="530" />
            </Array>
          </mxGeometry>
        </mxCell>
        <mxCell id="OoWEpa3Trh9tH26HNslA-31" value="否" style="text;html=1;align=center;verticalAlign=middle;resizable=0;points=[];autosize=1;strokeColor=none;fillColor=none;" parent="1" vertex="1">
          <mxGeometry x="630" y="240" width="40" height="30" as="geometry" />
        </mxCell>
        <mxCell id="OoWEpa3Trh9tH26HNslA-32" value="是" style="text;html=1;align=center;verticalAlign=middle;resizable=0;points=[];autosize=1;strokeColor=none;fillColor=none;" parent="1" vertex="1">
          <mxGeometry x="540" y="580" width="40" height="30" as="geometry" />
        </mxCell>
        <mxCell id="OoWEpa3Trh9tH26HNslA-36" value="新建推送配置" style="rounded=0;whiteSpace=wrap;html=1;shadow=1;labelBackgroundColor=none;strokeWidth=1;fontFamily=Verdana;fontSize=8;align=center;" parent="1" vertex="1">
          <mxGeometry x="640" y="445" width="90" height="30" as="geometry" />
        </mxCell>
        <mxCell id="OoWEpa3Trh9tH26HNslA-37" value="" style="edgeStyle=orthogonalEdgeStyle;rounded=0;orthogonalLoop=1;jettySize=auto;html=1;exitX=1;exitY=0.5;exitDx=0;exitDy=0;entryX=0;entryY=0.5;entryDx=0;entryDy=0;" parent="1" source="OoWEpa3Trh9tH26HNslA-17" target="OoWEpa3Trh9tH26HNslA-36" edge="1">
          <mxGeometry relative="1" as="geometry">
            <mxPoint x="690" y="489" as="sourcePoint" />
            <mxPoint x="630" y="489" as="targetPoint" />
          </mxGeometry>
        </mxCell>
        <mxCell id="OoWEpa3Trh9tH26HNslA-38" value="" style="edgeStyle=orthogonalEdgeStyle;rounded=0;orthogonalLoop=1;jettySize=auto;html=1;exitX=0;exitY=0.5;exitDx=0;exitDy=0;entryX=1;entryY=0.5;entryDx=0;entryDy=0;" parent="1" source="OoWEpa3Trh9tH26HNslA-19" target="60e70716793133e9-12" edge="1">
          <mxGeometry relative="1" as="geometry">
            <mxPoint x="620" y="510" as="sourcePoint" />
            <mxPoint x="700" y="620" as="targetPoint" />
          </mxGeometry>
        </mxCell>
        <mxCell id="OoWEpa3Trh9tH26HNslA-39" value="否" style="text;html=1;align=center;verticalAlign=middle;resizable=0;points=[];autosize=1;strokeColor=none;fillColor=none;" parent="1" vertex="1">
          <mxGeometry x="465" y="520" width="40" height="30" as="geometry" />
        </mxCell>
        <mxCell id="OoWEpa3Trh9tH26HNslA-40" value="否" style="text;html=1;align=center;verticalAlign=middle;resizable=0;points=[];autosize=1;strokeColor=none;fillColor=none;" parent="1" vertex="1">
          <mxGeometry x="600" y="430" width="40" height="30" as="geometry" />
        </mxCell>
        <mxCell id="OoWEpa3Trh9tH26HNslA-41" value="是" style="text;html=1;align=center;verticalAlign=middle;resizable=0;points=[];autosize=1;strokeColor=none;fillColor=none;" parent="1" vertex="1">
          <mxGeometry x="440" y="330" width="40" height="30" as="geometry" />
        </mxCell>
        <mxCell id="OoWEpa3Trh9tH26HNslA-43" value="" style="edgeStyle=orthogonalEdgeStyle;rounded=0;orthogonalLoop=1;jettySize=auto;html=1;entryX=1;entryY=0.5;entryDx=0;entryDy=0;" parent="1" target="OoWEpa3Trh9tH26HNslA-19" edge="1">
          <mxGeometry relative="1" as="geometry">
            <mxPoint x="694.5" y="475" as="sourcePoint" />
            <mxPoint x="694.5" y="650.5" as="targetPoint" />
            <Array as="points">
              <mxPoint x="680" y="475" />
              <mxPoint x="680" y="550" />
            </Array>
          </mxGeometry>
        </mxCell>
        <mxCell id="OoWEpa3Trh9tH26HNslA-44" value="推送完成" style="rounded=0;whiteSpace=wrap;html=1;shadow=1;labelBackgroundColor=none;strokeWidth=1;fontFamily=Verdana;fontSize=8;align=center;" parent="1" vertex="1">
          <mxGeometry x="505" y="690" width="90" height="30" as="geometry" />
        </mxCell>
        <mxCell id="OoWEpa3Trh9tH26HNslA-45" value="" style="edgeStyle=orthogonalEdgeStyle;rounded=0;orthogonalLoop=1;jettySize=auto;html=1;entryX=0;entryY=0.5;entryDx=0;entryDy=0;" parent="1" target="OoWEpa3Trh9tH26HNslA-44" edge="1">
          <mxGeometry relative="1" as="geometry">
            <mxPoint x="417.5" y="565" as="sourcePoint" />
            <mxPoint x="417" y="740.5" as="targetPoint" />
            <Array as="points">
              <mxPoint x="418" y="705" />
            </Array>
          </mxGeometry>
        </mxCell>
        <mxCell id="OoWEpa3Trh9tH26HNslA-46" value="" style="edgeStyle=orthogonalEdgeStyle;rounded=0;orthogonalLoop=1;jettySize=auto;html=1;entryX=0.5;entryY=0;entryDx=0;entryDy=0;" parent="1" target="OoWEpa3Trh9tH26HNslA-44" edge="1">
          <mxGeometry relative="1" as="geometry">
            <mxPoint x="549.5" y="650" as="sourcePoint" />
            <mxPoint x="550" y="795" as="targetPoint" />
            <Array as="points" />
          </mxGeometry>
        </mxCell>
        <mxCell id="OoWEpa3Trh9tH26HNslA-47" value="" style="edgeStyle=orthogonalEdgeStyle;rounded=0;orthogonalLoop=1;jettySize=auto;html=1;exitX=1;exitY=0.5;exitDx=0;exitDy=0;" parent="1" source="60e70716793133e9-5" edge="1">
          <mxGeometry relative="1" as="geometry">
            <mxPoint x="755" y="285" as="sourcePoint" />
            <mxPoint x="600" y="780" as="targetPoint" />
            <Array as="points">
              <mxPoint x="755" y="270" />
              <mxPoint x="755" y="780" />
            </Array>
          </mxGeometry>
        </mxCell>
        <mxCell id="OoWEpa3Trh9tH26HNslA-48" value="结束" style="rounded=1;whiteSpace=wrap;html=1;shadow=1;labelBackgroundColor=none;strokeWidth=1;fontFamily=Verdana;fontSize=8;align=center;" parent="1" vertex="1">
          <mxGeometry x="500" y="760" width="100" height="40" as="geometry" />
        </mxCell>
        <mxCell id="OoWEpa3Trh9tH26HNslA-49" value="" style="edgeStyle=orthogonalEdgeStyle;rounded=0;orthogonalLoop=1;jettySize=auto;html=1;entryX=0.5;entryY=0;entryDx=0;entryDy=0;" parent="1" target="OoWEpa3Trh9tH26HNslA-48" edge="1">
          <mxGeometry relative="1" as="geometry">
            <mxPoint x="549.5" y="720" as="sourcePoint" />
            <mxPoint x="550" y="865" as="targetPoint" />
            <Array as="points" />
          </mxGeometry>
        </mxCell>
      </root>
    </mxGraphModel>
  </diagram>
</mxfile>
